<svg width="28" height="28" viewBox="0 0 28 28" fill="none" xmlns="http://www.w3.org/2000/svg">
<g id="9055184_bxs_coin_stack_icon 1">
<path id="Vector" d="M14 11.6666C18.6386 11.6666 23.3333 10.0636 23.3333 6.99998C23.3333 3.93631 18.6386 2.33331 14 2.33331C9.36129 2.33331 4.66663 3.93631 4.66663 6.99998C4.66663 10.0636 9.36129 11.6666 14 11.6666Z" fill="#FA782F"/>
<path id="Vector_2" d="M4.66663 11.6666C4.66663 14.7303 9.36129 16.3333 14 16.3333C18.6386 16.3333 23.3333 14.7303 23.3333 11.6666V9.33331C23.3333 12.397 18.6386 14 14 14C9.36129 14 4.66663 12.397 4.66663 9.33331V11.6666Z" fill="#FA782F"/>
<path id="Vector_3" d="M4.66663 16.3333C4.66663 19.397 9.36129 21 14 21C18.6386 21 23.3333 19.397 23.3333 16.3333V14C23.3333 17.0637 18.6386 18.6667 14 18.6667C9.36129 18.6667 4.66663 17.0637 4.66663 14V16.3333Z" fill="#FA782F"/>
<path id="Vector_4" d="M4.66663 21C4.66663 24.0637 9.36129 25.6667 14 25.6667C18.6386 25.6667 23.3333 24.0637 23.3333 21V18.6667C23.3333 21.7304 18.6386 23.3334 14 23.3334C9.36129 23.3334 4.66663 21.7304 4.66663 18.6667V21Z" fill="#FA782F"/>
</g>
</svg>
