<svg width="24" height="25" viewBox="0 0 24 25" fill="none" xmlns="http://www.w3.org/2000/svg">
<g id="Group 4">
<g id="Vector">
<path d="M12.5902 5.41804C12.5902 2.70188 14.792 0.5 17.5082 0.5H23.8033C23.9119 0.5 24 0.588075 24 0.696721V6.9918C24 9.70795 21.7981 11.9098 19.082 11.9098H12.5902V5.41804Z" fill="#C4C4C4"/>
<path d="M12.5902 19.582C12.5902 22.2981 14.792 24.5 17.5082 24.5H23.8033C23.9119 24.5 24 24.4119 24 24.3033V18.0082C24 15.292 21.7981 13.0902 19.082 13.0902H12.5902V19.582Z" fill="#C4C4C4"/>
<path d="M11.4098 5.41804C11.4098 2.70188 9.20796 0.5 6.4918 0.5H0.196722C0.0880756 0.5 0 0.588075 0 0.696721V6.9918C0 9.70795 2.20188 11.9098 4.91803 11.9098H11.4098V5.41804Z" fill="#C4C4C4"/>
<path d="M11.4098 19.582C11.4098 22.2981 9.20796 24.5 6.4918 24.5H0.196722C0.0880756 24.5 0 24.4119 0 24.3033V18.0082C0 15.292 2.20188 13.0902 4.91803 13.0902H11.4098V19.582Z" fill="#C4C4C4"/>
</g>
</g>
</svg>
