<svg width="28" height="28" viewBox="0 0 28 28" fill="none" xmlns="http://www.w3.org/2000/svg">
<g id="8674394_ic_fluent_apps_regular_icon 1">
<g id="Vector">
<path d="M21.5744 2.71825L25.2828 6.42681C26.308 7.45194 26.308 9.114 25.2828 10.1391L22.2677 13.1537C23.5312 13.3432 24.5 14.4332 24.5 15.7496V21.8745C24.5 23.3242 23.3247 24.4995 21.875 24.4995H6.125C4.67525 24.4995 3.5 23.3242 3.5 21.8745V6.12453C3.5 4.67478 4.67525 3.49953 6.125 3.49953H12.25C13.567 3.49953 14.6576 4.46955 14.8462 5.73416L17.862 2.71825C18.8872 1.69312 20.5492 1.69312 21.5744 2.71825ZM5.25 21.8745C5.25 22.3578 5.64176 22.7495 6.125 22.7495L13.1238 22.7487L13.125 14.8746L5.25 14.8737V21.8745ZM14.8738 22.7487L21.875 22.7495C22.3582 22.7495 22.75 22.3578 22.75 21.8745V15.7496C22.75 15.2663 22.3582 14.8746 21.875 14.8746L14.8738 14.8737V22.7487ZM12.25 5.24953H6.125C5.64176 5.24953 5.25 5.64127 5.25 6.12453V13.1237H13.125V6.12453C13.125 5.64127 12.7332 5.24953 12.25 5.24953ZM14.875 10.8604V13.1246L17.1383 13.1237L14.875 10.8604ZM19.0994 3.95568L15.3909 7.66425C15.0492 8.00595 15.0492 8.55998 15.3909 8.90169L19.0994 12.6103C19.4411 12.952 19.9951 12.952 20.3369 12.6103L24.0455 8.90169C24.3872 8.55998 24.3872 8.00595 24.0455 7.66425L20.3369 3.95568C19.9951 3.61398 19.4411 3.61398 19.0994 3.95568Z" fill="#C4C4C4"/>
<path d="M19.0994 3.95568L15.3909 7.66425C15.0492 8.00595 15.0492 8.55998 15.3909 8.90169L19.0994 12.6103C19.4411 12.952 19.9951 12.952 20.3369 12.6103L24.0455 8.90169C24.3872 8.55998 24.3872 8.00595 24.0455 7.66425L20.3369 3.95568C19.9951 3.61398 19.4411 3.61398 19.0994 3.95568Z" fill="#C4C4C4"/>
</g>
</g>
</svg>
