<svg width="24" height="25" viewBox="0 0 24 25" fill="none" xmlns="http://www.w3.org/2000/svg">
<g id="6127246_multimedia_music_play_player_video_icon 1" clip-path="url(#clip0_101_35)">
<g id="Layer 2">
<g id="Interface-Solid">
<g id="interface-solid-multimedia-play-button">
<path id="Vector" d="M11.5323 0.967743C9.2514 0.967743 7.02175 1.6441 5.12528 2.91128C3.22881 4.17846 1.7507 5.97955 0.877846 8.0868C0.00499677 10.194 -0.22338 12.5128 0.221594 14.7498C0.666569 16.9869 1.76491 19.0417 3.37773 20.6545C4.99054 22.2674 7.04539 23.3657 9.28243 23.8107C11.5195 24.2556 13.8382 24.0273 15.9455 23.1544C18.0527 22.2816 19.8538 20.8034 21.121 18.907C22.3882 17.0105 23.0645 14.7809 23.0645 12.5C23.0611 9.4425 21.845 6.5112 19.683 4.34922C17.5211 2.18724 14.5898 0.971145 11.5323 0.967743V0.967743ZM14.9117 13.1303L12.0644 15.118L10.5706 16.1607C10.4554 16.2412 10.3203 16.2885 10.18 16.2975C10.0397 16.3065 9.89967 16.277 9.77504 16.212C9.65042 16.147 9.54599 16.049 9.47312 15.9289C9.40026 15.8087 9.36174 15.6708 9.36175 15.5302V9.46978C9.36174 9.32922 9.40026 9.19135 9.47312 9.07115C9.54599 8.95096 9.65042 8.85304 9.77504 8.78804C9.89967 8.72304 10.0397 8.69345 10.18 8.70249C10.3203 8.71153 10.4554 8.75885 10.5706 8.8393L12.0644 9.88197L14.9117 11.8695C15.0132 11.9404 15.0961 12.0347 15.1533 12.1444C15.2106 12.2542 15.2405 12.3761 15.2405 12.4999C15.2405 12.6237 15.2106 12.7456 15.1533 12.8554C15.0961 12.9651 15.0132 13.0595 14.9117 13.1303Z" fill="#C4C4C4"/>
</g>
</g>
</g>
</g>
<defs>
<clipPath id="clip0_101_35">
<rect width="23.0645" height="23.0645" fill="white" transform="translate(0 0.967743)"/>
</clipPath>
</defs>
</svg>
