<svg width="28" height="28" viewBox="0 0 28 28" fill="none" xmlns="http://www.w3.org/2000/svg">
<g id="211674_help_circled_icon 1">
<g id="Group">
<path id="Vector" d="M14 1.75C7.23516 1.75 1.75 7.23516 1.75 14C1.75 20.7648 7.23516 26.25 14 26.25C20.7648 26.25 26.25 20.7648 26.25 14C26.25 7.23516 20.7648 1.75 14 1.75ZM15.1047 19.6164C15.0773 20.5898 14.3555 21.1914 13.4203 21.1641C12.5234 21.1367 11.818 20.4969 11.8453 19.518C11.8727 18.5445 12.6164 17.9266 13.5133 17.9539C14.4539 17.9812 15.1375 18.643 15.1047 19.6164ZM17.768 12.6547C17.5383 12.9773 17.0242 13.393 16.3789 13.8961L15.6625 14.3883C15.3125 14.6562 15.0938 14.9734 14.9789 15.3344C14.9187 15.5258 14.875 16.0234 14.8641 16.357C14.8586 16.4227 14.8203 16.5703 14.618 16.5703C14.4156 16.5703 12.7039 16.5703 12.4797 16.5703C12.2555 16.5703 12.2281 16.4391 12.2336 16.3734C12.2664 15.4656 12.3977 14.7164 12.775 14.1148C13.2836 13.3055 14.7164 12.4523 14.7164 12.4523C14.9352 12.2883 15.1047 12.1133 15.2359 11.9219C15.4766 11.5938 15.6734 11.2273 15.6734 10.8336C15.6734 10.3797 15.5641 9.94766 15.2742 9.58672C14.9352 9.16563 14.5688 8.96328 13.8633 8.96328C13.1687 8.96328 12.7641 9.31328 12.4742 9.77266C12.1844 10.232 12.2336 10.7734 12.2336 11.2656H9.57031C9.57031 9.40625 10.057 8.21953 11.0852 7.51953C11.7797 7.04375 12.6656 6.83594 13.6992 6.83594C15.0555 6.83594 16.1328 7.0875 17.0844 7.80938C17.9648 8.47656 18.4297 9.41719 18.4297 10.6859C18.4297 11.468 18.1562 12.1242 17.768 12.6547Z" fill="#C4C4C4"/>
</g>
</g>
</svg>
